<?xml version="1.0" encoding="UTF-8"?>
<svg version="1.1" xmlns="http://www.w3.org/2000/svg" width="3508" height="2481" viewBox="1100 690 1400 750">
<path d="M0 0 C12.90962054 0.66773899 23.9504022 6.36842294 35.375 11.9375 C78.72118535 33.01019912 128.20394435 40.27578795 176 43 C177.3931543 43.08459473 177.3931543 43.08459473 178.81445312 43.17089844 C207.55001938 44.84896019 236.43124896 44.36133713 265.17578125 43.2109375 C266.78854478 43.14750751 266.78854478 43.14750751 268.43388939 43.0827961 C295.15599634 42.01878669 321.84037422 40.36179815 348.5291748 38.67602539 C358.65156152 38.03784439 368.77460731 37.41019764 378.89763451 36.78227425 C382.35924036 36.56663239 385.82066148 36.34821876 389.28205872 36.1292572 C409.46034599 34.86053251 429.58751693 33.84184735 449.80859375 33.796875 C450.69957323 33.79404762 451.59055271 33.79122025 452.50853157 33.78830719 C457.23493851 33.77349187 461.96131639 33.76415481 466.68774414 33.75976562 C470.4905778 33.7554129 474.29318051 33.74161958 478.09594727 33.71875 C498.18156399 33.60058578 518.15133398 33.79224183 538.18359375 35.37890625 C538.9660037 35.44085426 539.74841366 35.50280228 540.554533 35.5666275 C579.50112572 38.73078165 617.77830962 46.08212144 655 58 C656.80317673 58.55796653 658.60655399 59.11528553 660.41015625 59.671875 C691.46824738 69.44174634 727.27607623 83.75293902 751 107 C751 107.66 751 108.32 751 109 C740.12822989 107.66406215 730.0050657 103.7941892 720.109375 99.2265625 C688.893726 85.03411075 650.65419695 84.81693972 616.8762207 84.75976562 C613.5506621 84.75032137 610.22579788 84.71932922 606.90039062 84.6875 C567.81179363 84.49040629 528.81372241 88.56745167 489.98126221 92.60845947 C481.53875814 93.48511913 473.09460456 94.34587906 464.65057945 95.2077446 C462.57132162 95.41998312 460.49208885 95.63246745 458.41288185 95.8452034 C443.2825677 97.39175193 428.14642442 98.85830938 413 100.23828125 C412.1074029 100.32009077 411.21480579 100.40190029 410.29516029 100.48618889 C326.43953087 108.14773134 242.73768913 103.89025735 1.40625 2.2421875 C0.9421875 1.83226562 0.478125 1.42234375 0 1 C0 0.67 0 0.34 0 0 Z " fill="#991E5B" transform="translate(1468,910)"/>
<path d="M0 0 C17.49 0 34.98 0 53 0 C56.32896969 6.63673575 59.65744972 13.27369059 62.98215485 19.91255951 C64.53186397 23.00678379 66.08224828 26.10066464 67.63452148 29.19360352 C74.77032597 43.41325521 81.80617073 57.67213202 88.6340332 72.04272461 C90.57435517 76.12227597 92.55737978 80.17650736 94.57421875 84.21875 C101.43723224 98.01787926 107.65709573 111.98997683 113.5 126.25 C113.83325287 127.06090088 114.16650574 127.87180176 114.50985718 128.70727539 C118.00454545 137.23649321 121.3650286 145.80451956 124.46875 154.484375 C124.72611938 155.19781067 124.98348877 155.91124634 125.24865723 156.64630127 C126.27353476 159.56573305 127 161.88152672 127 165 C127.33 164.67 127.66 164.34 128 164 C127.95771908 162.13183094 127.84100926 160.26530263 127.6953125 158.40234375 C127.60636719 157.20544922 127.51742187 156.00855469 127.42578125 154.77539062 C127.32652344 153.50888672 127.22726563 152.24238281 127.125 150.9375 C125.40072702 128.7526638 124.85147122 106.62190726 124.90234375 84.375 C124.90421536 81.92065459 124.90563574 79.46630881 124.90663147 77.01196289 C124.91039822 70.64018673 124.92017649 64.2684344 124.93133545 57.89666748 C124.94167729 51.35950035 124.94615608 44.82232926 124.95117188 38.28515625 C124.96180576 25.5234255 124.97935305 12.76171848 125 0 C138.86 0 152.72 0 167 0 C167 76.89 167 153.78 167 233 C151.16 233 135.32 233 119 233 C116.36 227.72 113.72 222.44 111 217 C109.93136719 214.87433594 108.86273437 212.74867188 107.76171875 210.55859375 C102.16577775 199.42487232 96.63627826 188.26636093 91.29443359 177.00830078 C88.7437176 171.63478028 86.16414608 166.27699952 83.54296875 160.9375 C67.88762851 129.0033143 52.98752549 96.5084558 41 63 C40.93842917 75.16576065 41.09487951 87.30849998 41.42396736 99.46949196 C42.12642877 126.05515304 42.11949241 152.6344333 42.06866455 179.22747803 C42.0581811 185.32417433 42.05381509 191.42087529 42.04882812 197.51757812 C42.03830509 209.34506555 42.02081682 221.17252621 42 233 C28.14 233 14.28 233 0 233 C0 156.11 0 79.22 0 0 Z " fill="#991E5B" transform="translate(2011,1048)"/>
<path d="M0 0 C17.49 0 34.98 0 53 0 C56.32896969 6.63673575 59.65744972 13.27369059 62.98215485 19.91255951 C64.53186397 23.00678379 66.08224828 26.10066464 67.63452148 29.19360352 C74.77032597 43.41325521 81.80617073 57.67213202 88.6340332 72.04272461 C90.57435517 76.12227597 92.55737978 80.17650736 94.57421875 84.21875 C101.43723224 98.01787926 107.65709573 111.98997683 113.5 126.25 C113.83325287 127.06090088 114.16650574 127.87180176 114.50985718 128.70727539 C118.00454545 137.23649321 121.3650286 145.80451956 124.46875 154.484375 C124.72611938 155.19781067 124.98348877 155.91124634 125.24865723 156.64630127 C126.27353476 159.56573305 127 161.88152672 127 165 C127.33 164.67 127.66 164.34 128 164 C127.95771908 162.13183094 127.84100926 160.26530263 127.6953125 158.40234375 C127.60636719 157.20544922 127.51742188 156.00855469 127.42578125 154.77539062 C127.32652344 153.50888672 127.22726562 152.24238281 127.125 150.9375 C125.40072702 128.7526638 124.85147122 106.62190726 124.90234375 84.375 C124.90421536 81.92065459 124.90563574 79.46630881 124.90663147 77.01196289 C124.91039822 70.64018673 124.92017649 64.2684344 124.93133545 57.89666748 C124.94167729 51.35950035 124.94615608 44.82232926 124.95117188 38.28515625 C124.96180576 25.5234255 124.97935305 12.76171848 125 0 C138.86 0 152.72 0 167 0 C167 76.89 167 153.78 167 233 C151.16 233 135.32 233 119 233 C116.36 227.72 113.72 222.44 111 217 C109.93136719 214.87433594 108.86273437 212.74867188 107.76171875 210.55859375 C102.16577775 199.42487232 96.63627826 188.26636093 91.29443359 177.00830078 C88.7437176 171.63478028 86.16414608 166.27699952 83.54296875 160.9375 C67.88762851 129.0033143 52.98752549 96.5084558 41 63 C40.93842917 75.16576065 41.09487951 87.30849998 41.42396736 99.46949196 C42.12642877 126.05515304 42.11949241 152.6344333 42.06866455 179.22747803 C42.0581811 185.32417433 42.05381509 191.42087529 42.04882812 197.51757812 C42.03830509 209.34506555 42.02081682 221.17252621 42 233 C28.14 233 14.28 233 0 233 C0 156.11 0 79.22 0 0 Z " fill="#991E5B" transform="translate(1155,1048)"/>
<path d="M0 0 C14.85 0 29.7 0 45 0 C45 29.7 45 59.4 45 90 C70.08 90 95.16 90 121 90 C121 60.3 121 30.6 121 0 C135.85 0 150.7 0 166 0 C166 76.89 166 153.78 166 233 C151.15 233 136.3 233 121 233 C121 200.99 121 168.98 121 136 C95.92 136 70.84 136 45 136 C45 168.01 45 200.02 45 233 C30.15 233 15.3 233 0 233 C0 156.11 0 79.22 0 0 Z " fill="#991E5B" transform="translate(1609,1048)"/>
<path d="M0 0 C19.47 0 38.94 0 59 0 C61.02102341 5.38939575 62.80994089 10.56748184 64.27050781 16.09643555 C64.47832477 16.86993819 64.68614172 17.64344084 64.90025616 18.44038296 C65.58827959 21.00484453 66.27067315 23.57076939 66.953125 26.13671875 C67.44604305 27.97795435 67.93934392 29.81908751 68.43299866 31.66012573 C69.48990018 35.6044647 70.54442721 39.54942765 71.59707642 43.49490356 C73.26525128 49.74698017 74.93898009 55.99756064 76.61401367 62.24780273 C77.0370246 63.82629737 77.0370246 63.82629737 77.4685812 65.43668079 C78.04268966 67.57896883 78.61681535 69.72125225 79.19095802 71.86353111 C80.06384165 75.12114774 80.93623045 78.37889655 81.80851746 81.63667297 C87.36654892 102.39080074 92.96832929 123.13299248 98.58398056 143.87159348 C99.31105125 146.55714881 100.03774914 149.24280474 100.76431274 151.92849731 C105.18861161 168.28244693 109.61653301 184.63523798 114.1015625 200.97265625 C114.39820297 202.054366 114.69484344 203.13607574 115.00047302 204.25056458 C116.29684855 208.97655575 117.59675998 213.70149475 118.90551758 218.42407227 C119.33165625 219.97278784 119.75769052 221.52153216 120.18359375 223.0703125 C120.37293488 223.7469545 120.562276 224.4235965 120.75735474 225.1207428 C121.5067745 227.85809304 122 230.14338184 122 233 C105.83 233 89.66 233 73 233 C69.72779758 221.22007127 66.47536722 209.44453119 63.3503418 197.62646484 C62.90165356 195.93318318 62.45074212 194.24048932 61.99780273 192.54833984 C61.33100365 190.0569037 60.67062543 187.56384592 60.01171875 185.0703125 C59.80866623 184.31622101 59.60561371 183.56212952 59.39640808 182.78518677 C58.50163585 179.37083089 58 176.55815899 58 173 C29.29 173.495 29.29 173.495 0 174 C-0.99902344 178.17527344 -1.99804688 182.35054687 -3.02734375 186.65234375 C-3.82403675 189.97312901 -4.62144865 193.2937398 -5.41934967 196.61423492 C-6.2624756 200.12380763 -7.10432026 203.63367654 -7.94311523 207.14428711 C-8.75047939 210.52313518 -9.56130434 213.9011352 -10.37457466 217.27856636 C-10.83620284 219.19969162 -11.29420711 221.12168648 -11.75218201 223.04368591 C-12.032397 224.204814 -12.312612 225.36594208 -12.60131836 226.56225586 C-12.84780624 227.59039902 -13.09429413 228.61854218 -13.34825134 229.67784119 C-14 232 -14 232 -15 233 C-16.47354348 233.09304018 -17.95150591 233.11746265 -19.42797852 233.11352539 C-20.36887833 233.11344986 -21.30977814 233.11337433 -22.27919006 233.11329651 C-23.30209641 233.10813522 -24.32500275 233.10297394 -25.37890625 233.09765625 C-26.941605 233.09553383 -26.941605 233.09553383 -28.53587341 233.09336853 C-31.87811094 233.0877508 -35.22028257 233.0751953 -38.5625 233.0625 C-40.82226466 233.05748728 -43.08203037 233.05292398 -45.34179688 233.04882812 C-50.89455391 233.03777561 -56.44727225 233.02102024 -62 233 C-54.33658862 202.49078686 -46.2876668 172.08514366 -38.20947266 141.68383789 C-37.97315062 140.79445935 -37.73682858 139.90508081 -37.49334526 138.98875141 C-37.13483073 137.63952736 -37.13483073 137.63952736 -36.76907349 136.26304626 C-36.52741581 135.35358686 -36.28575813 134.44412746 -36.0367775 133.50710869 C-35.54146412 131.643111 -35.04611009 129.77912412 -34.5507164 127.91514778 C-30.54527947 112.84274951 -26.55897542 97.76535717 -22.58106995 82.68567085 C-20.72005568 75.63185141 -18.85739684 68.57846597 -16.99491119 61.5250349 C-15.4730202 55.76071566 -13.95231236 49.99608902 -12.43408203 44.23080444 C-11.00271828 38.79548408 -9.56841933 33.36094662 -8.13195038 27.92697334 C-7.60085066 25.91564973 -7.07086665 23.90403113 -6.54206085 21.8921032 C-5.81643392 19.13188021 -5.08691729 16.37271361 -4.35644531 13.61376953 C-4.04029518 12.4053806 -4.04029518 12.4053806 -3.71775818 11.17257977 C-3.42062675 10.05511222 -3.42062675 10.05511222 -3.11749268 8.91506958 C-2.86445814 7.95541133 -2.86445814 7.95541133 -2.6063118 6.97636604 C-1.87823724 4.60309565 -0.92195481 2.30488704 0 0 Z M27 40 C26.75467529 41.21316895 26.50935059 42.42633789 26.2565918 43.67626953 C20.11694851 73.95259263 13.31662135 103.98309192 6 134 C20.85 134 35.7 134 51 134 C49.91460938 129.62105469 48.82921875 125.24210937 47.7109375 120.73046875 C47.00876393 117.89136174 46.30678415 115.05220941 45.60546875 112.21289062 C44.50165218 107.74409579 43.39726918 103.27544872 42.28857422 98.80786133 C41.21752755 94.49125841 40.1504912 90.17367729 39.0859375 85.85546875 C38.91092461 85.14658382 38.73591171 84.4376989 38.5555954 83.70733261 C36.68733357 76.12584817 34.86955211 68.53841795 33.20800781 60.90869141 C32.93461578 59.65333084 32.66122375 58.39797028 32.37954712 57.10456848 C31.8730326 54.75014918 31.37377107 52.39415401 30.88290405 50.03642273 C30.66196075 49.00129044 30.44101746 47.96615814 30.21337891 46.8996582 C30.0257901 45.99657425 29.83820129 45.0934903 29.64492798 44.16304016 C29.13131281 41.81425433 29.13131281 41.81425433 27 40 Z " fill="#991E5B" transform="translate(1862,1048)"/>
<path d="M0 0 C4.5188917 2.52884132 8.44238528 5.62362734 12.5 8.8125 C28.12136531 20.89553196 44.70261418 31.48967957 62 41 C62.84127441 41.46583496 63.68254883 41.93166992 64.54931641 42.41162109 C91.5412866 57.24992856 119.83685901 68.56058978 148.99188232 78.32476807 C150.90970175 78.96963711 152.82432386 79.62399167 154.73876953 80.27880859 C187.22513653 91.37718184 220.60221156 99.57159804 253.80953407 108.18797112 C312.13377296 123.32190342 312.13377296 123.32190342 337 131 C337.75962036 131.23400513 338.51924072 131.46801025 339.30187988 131.70910645 C372.58828456 141.9867437 405.02124335 154.00689165 436.0390625 169.99072266 C437.3571848 170.66914865 438.67754653 171.34323952 440 172.01318359 C469.24263456 186.83835578 495.91193418 205.79317532 520 228 C529.17404916 236.72041977 529.17404916 236.72041977 539.171875 244.41796875 C544.64969894 248.04071401 544.64969894 248.04071401 545.76171875 251.0859375 C546.16938733 254.0190335 546.34496973 256.31006054 545 259 C541.48807617 257.67442091 538.30504664 256.12169703 535.0625 254.234375 C504.05327725 236.40127982 471.91466438 222.15021489 438 210.8125 C437.31759247 210.58391296 436.63518494 210.35532593 435.93209839 210.11981201 C411.61421227 202.01838056 387.05141254 195.0250338 362.16153717 188.92271423 C358.74077133 188.0818971 355.32247431 187.23114316 351.90380859 186.38183594 C338.27635983 183.00032007 324.63798249 179.66414949 310.99444771 176.34820175 C280.15327715 168.85095787 249.34258281 161.35975811 219 152 C218.26616089 151.77372925 217.53232178 151.5474585 216.77624512 151.31433105 C159.89102785 133.69116655 105.94800498 108.39405307 60 70 C58.989375 69.17628906 57.97875 68.35257813 56.9375 67.50390625 C49.30402128 61.20282071 42.20556586 54.41489928 35.1875 47.4375 C34.31625488 46.57543945 33.44500977 45.71337891 32.54736328 44.82519531 C26.60807058 38.85765793 21.25972381 32.56765265 16 26 C15.05455097 24.87870911 14.10392516 23.76172666 13.14453125 22.65234375 C0 7.35008375 0 7.35008375 0 0 Z " fill="#991E5B" transform="translate(1697,749)"/>
<path d="M0 0 C-0.61886854 5.58907052 -1.56467062 10.9657814 -2.84765625 16.4375 C-3.02380966 17.20304199 -3.19996307 17.96858398 -3.38145447 18.75732422 C-3.93807051 21.17242992 -4.50018428 23.58621574 -5.0625 26 C-5.44372552 27.64965501 -5.82458829 29.2993939 -6.20507812 30.94921875 C-7.1325315 34.96712683 -8.0649134 38.98386184 -9 43 C-9.57854736 42.76812988 -10.15709473 42.53625977 -10.75317383 42.29736328 C-13.43553724 41.22932842 -16.12386898 40.17715215 -18.8125 39.125 C-19.72193359 38.76019531 -20.63136719 38.39539062 -21.56835938 38.01953125 C-31.13539768 34.30089445 -40.3755956 32.64479415 -50.625 32.6875 C-51.79675781 32.66333008 -51.79675781 32.66333008 -52.9921875 32.63867188 C-61.17232199 32.63190024 -68.58589163 34.77921412 -75 40 C-79.96390592 46.57382135 -80.75181658 51.94008404 -80 60 C-78.15546247 67.19120377 -73.09507509 71.20732278 -67 75 C-60.0573321 78.79776673 -52.8968429 82.12414927 -45.71875 85.44921875 C-23.44997413 95.80238598 -4.12478839 108.03489643 5 132 C5.48146484 133.24716797 5.48146484 133.24716797 5.97265625 134.51953125 C11.57945729 152.33090387 8.9959446 173.75296824 1.1875 190.4375 C-1.68257222 195.75939271 -5.02520326 200.45233899 -9 205 C-9.50917969 205.60328125 -10.01835938 206.2065625 -10.54296875 206.828125 C-25.13008677 222.81992846 -47.89628526 227.95720282 -68.67041016 228.92529297 C-88.26075526 229.49398167 -110.86637193 226.10444732 -128 216 C-129.41122953 213.84446262 -130.02750572 212.55398102 -129.89883423 209.96246338 C-129.73450897 209.24298523 -129.57018372 208.52350708 -129.40087891 207.78222656 C-129.22054108 206.96167786 -129.04020325 206.14112915 -128.85440063 205.29571533 C-128.64721405 204.41953552 -128.44002747 203.54335571 -128.2265625 202.640625 C-128.0239682 201.73624695 -127.8213739 200.8318689 -127.61264038 199.90008545 C-126.96292683 197.01364036 -126.29424371 194.13197275 -125.625 191.25 C-125.18103501 189.29325345 -124.73831141 187.33622479 -124.296875 185.37890625 C-123.21229149 180.58254587 -122.11067591 175.7903825 -121 171 C-118.28675798 172.07473878 -115.60639168 173.17594241 -112.94140625 174.3671875 C-95.34750914 182.21833696 -71.99375888 189.21488433 -52.97265625 181.96875 C-46.14854686 178.6175042 -42.77893107 175.14155405 -40 168 C-37.72632839 161.17898518 -38.60490783 154.79321097 -41.44140625 148.30078125 C-45.95992122 141.63059248 -51.69384288 137.60855299 -58.8125 134.0625 C-59.63782227 133.63775391 -60.46314453 133.21300781 -61.31347656 132.77539062 C-66.86821234 129.95467592 -72.52060235 127.44027598 -78.25 125 C-98.34430175 116.37908009 -115.4074849 102.57150312 -124 82 C-126.62040814 74.39033476 -127.51946116 67.2717856 -127.4375 59.25 C-127.42614014 57.67847168 -127.42614014 57.67847168 -127.41455078 56.07519531 C-127.00662633 36.75089084 -119.66852412 20.21441912 -105.69140625 6.78125 C-77.56424089 -17.23537724 -31.70745848 -16.55138956 0 0 Z " fill="#991E5B" transform="translate(1569,1056)"/>
<path d="M0 0 C51.48 0 102.96 0 156 0 C156 14.85 156 29.7 156 45 C137.52 45 119.04 45 100 45 C100 107.04 100 169.08 100 233 C85.15 233 70.3 233 55 233 C55 170.96 55 108.92 55 45 C36.85 45 18.7 45 0 45 C0 30.15 0 15.3 0 0 Z " fill="#991E5B" transform="translate(2202,1048)"/>
<path d="M0 0 C10.56842258 4.11442406 17.94107545 19.35350643 23.33984375 28.7578125 C31.50251937 42.80079123 42.70370612 53.74686833 55.43359375 63.7421875 C58.22619247 65.93786303 60.9112619 68.23631577 63.609375 70.546875 C77.55597894 82.1600703 92.74272618 92.08688815 108.046875 101.796875 C109.38733887 102.65055664 109.38733887 102.65055664 110.75488281 103.52148438 C123.01542528 111.31460519 135.41817504 118.84074257 147.921875 126.234375 C189.03075717 150.55347817 230.49658874 175.45675639 265.046875 208.796875 C265.66336914 209.39145508 266.27986328 209.98603516 266.91503906 210.59863281 C274.82194794 218.26821576 282.36233544 226.01664196 289.046875 234.796875 C289.46888184 235.33715332 289.89088867 235.87743164 290.32568359 236.43408203 C298.0260888 246.3108693 304.31282247 256.67181151 310.046875 267.796875 C310.39266602 268.46251465 310.73845703 269.1281543 311.09472656 269.81396484 C316.72365039 280.786207 321.44598116 292.28090577 321.046875 304.796875 C320.386875 304.796875 319.726875 304.796875 319.046875 304.796875 C317.49335135 302.91197351 316.04578884 301.01827688 314.609375 299.046875 C302.2872929 282.63457726 287.26776076 267.34875089 271.046875 254.796875 C269.87336791 253.8392361 268.70162283 252.87943565 267.53125 251.91796875 C244.6618899 233.36618612 219.18264612 217.88186364 193.8918457 202.890625 C191.9590215 201.744793 190.02725782 200.59718939 188.09570312 199.44921875 C182.6101688 196.18948454 177.12286566 192.93273525 171.63452148 189.67773438 C93.18014321 143.1435634 93.18014321 143.1435634 63.046875 111.796875 C60.63300848 109.33590865 58.22909584 106.95281398 55.609375 104.7109375 C46.55941505 96.6266745 41.55027391 86.59976622 35.83300781 76.03271484 C32.76744003 70.47899213 29.49406991 65.05064329 26.234375 59.609375 C20.23699466 49.5557113 14.37289452 39.43508805 8.59213257 29.25558472 C4.00796859 21.18332717 -0.66129623 13.18255358 -5.546875 5.2890625 C-6.953125 2.796875 -6.953125 2.796875 -6.953125 0.796875 C-4.50848562 -0.42544469 -2.67713212 -0.46462624 0 0 Z " fill="#991E5B" transform="translate(1940.953125,704.203125)"/>
<path d="M0 0 C14.85 0 29.7 0 45 0 C45 76.89 45 153.78 45 233 C30.15 233 15.3 233 0 233 C0 156.11 0 79.22 0 0 Z " fill="#991E5B" transform="translate(1362,1048)"/>
<path d="M0 0 C5.28 0 10.56 0 16 0 C17.83917874 3.16338743 19.67130599 6.33055677 21.5 9.5 C22.0053125 10.36753906 22.510625 11.23507812 23.03125 12.12890625 C27.72704505 20.28785015 31.76443692 28.52887384 36 37 C36 24.79 36 12.58 36 0 C40.29 0 44.58 0 49 0 C49 19.14 49 38.28 49 58 C44.05 58 39.1 58 34 58 C31.99936048 54.31284577 29.99948013 50.62528289 28 46.9375 C27.44699219 45.91849609 26.89398437 44.89949219 26.32421875 43.84960938 C21.84480881 35.58587034 17.42369015 27.29441904 13 19 C12.67 31.87 12.34 44.74 12 58 C8.04 58 4.08 58 0 58 C0 38.86 0 19.72 0 0 Z " fill="#991E5B" transform="translate(1821,1309)"/>
<path d="M0 0 C5.28 0 10.56 0 16 0 C17.83917874 3.16338743 19.67130599 6.33055677 21.5 9.5 C22.0053125 10.36753906 22.510625 11.23507812 23.03125 12.12890625 C27.72704505 20.28785015 31.76443692 28.52887384 36 37 C36 24.79 36 12.58 36 0 C40.29 0 44.58 0 49 0 C49 19.14 49 38.28 49 58 C44.05 58 39.1 58 34 58 C31.99936048 54.31284577 29.99948013 50.62528289 28 46.9375 C27.44699219 45.91849609 26.89398437 44.89949219 26.32421875 43.84960938 C21.84480881 35.58587034 17.42369015 27.29441904 13 19 C12.67 31.87 12.34 44.74 12 58 C8.04 58 4.08 58 0 58 C0 38.86 0 19.72 0 0 Z " fill="#991E5B" transform="translate(1295,1309)"/>
<path d="M0 0 C3.82674268 2.01966975 6.24363877 4.24855667 7.765625 8.27734375 C8.46000253 12.96439207 8.24291821 16.3043999 6.140625 20.58984375 C3.51558127 23.56028798 1.15932571 25.27197515 -2.234375 27.27734375 C-0.56035522 31.23411777 1.89711785 34.12198588 4.765625 37.27734375 C5.425625 37.27734375 6.085625 37.27734375 6.765625 37.27734375 C8.085625 32.98734375 9.405625 28.69734375 10.765625 24.27734375 C14.725625 24.27734375 18.685625 24.27734375 22.765625 24.27734375 C22.50793457 30.97729497 20.30729792 35.66635457 17.140625 41.54296875 C15.37347531 44.77130585 15.37347531 44.77130585 14.765625 48.27734375 C16.63552461 50.71762451 16.63552461 50.71762451 19.203125 52.96484375 C20.7333835 54.39230626 22.25675119 55.82729543 23.765625 57.27734375 C23.765625 57.60734375 23.765625 57.93734375 23.765625 58.27734375 C21.18165821 58.35846829 18.60024932 58.41789123 16.015625 58.46484375 C15.28601562 58.48998047 14.55640625 58.51511719 13.8046875 58.54101562 C9.25383235 58.60307274 7.27838751 58.00690755 3.765625 55.27734375 C1.47933282 55.79959797 1.47933282 55.79959797 -0.796875 57.08984375 C-7.68838844 60.15499406 -14.41182519 60.44392959 -21.609375 58.08984375 C-26.67000836 55.89137188 -30.10882861 52.35452225 -32.234375 47.27734375 C-33.25872954 40.93712826 -32.38826097 36.2070428 -28.6796875 30.97265625 C-26.76137685 28.72252971 -24.66899422 26.94679693 -22.234375 25.27734375 C-22.70875 24.39046875 -23.183125 23.50359375 -23.671875 22.58984375 C-25.99101827 17.67326002 -26.61543915 14.95183954 -25.109375 9.71484375 C-23.33823428 4.84622862 -20.8257022 2.82650675 -16.4375 0.203125 C-11.49312787 -1.87456329 -5.0615951 -1.63705436 0 0 Z M-13.171875 9.33984375 C-14.62387987 13.35421016 -13.91117237 15.41341938 -12.234375 19.27734375 C-10.24869766 20.77478263 -10.24869766 20.77478263 -8.234375 21.27734375 C-4.49431675 17.44679125 -4.49431675 17.44679125 -2.734375 12.58984375 C-3.33654664 9.8047999 -3.84911669 8.84009919 -6.234375 7.27734375 C-9.71407247 6.58140426 -10.71325019 6.72259798 -13.171875 9.33984375 Z M-17.234375 33.27734375 C-19.14526125 36.48763264 -20.234375 38.62900316 -20.234375 42.40234375 C-18.91267928 46.20221895 -17.77889492 47.35739546 -14.234375 49.27734375 C-11.16591951 49.75645347 -8.28313034 49.91107379 -5.234375 49.27734375 C-4.2022199 48.31056774 -3.1974088 47.31299133 -2.234375 46.27734375 C-4.16224927 44.10138643 -6.10067074 41.93679991 -8.046875 39.77734375 C-8.59408203 39.15730469 -9.14128906 38.53726562 -9.70507812 37.8984375 C-10.23681641 37.31191406 -10.76855469 36.72539063 -11.31640625 36.12109375 C-12.04694214 35.30415039 -12.04694214 35.30415039 -12.79223633 34.47070312 C-14.30761269 32.95858125 -14.30761269 32.95858125 -17.234375 33.27734375 Z " fill="#991E5B" transform="translate(1497.234375,1308.72265625)"/>
<path d="M0 0 C-0.66 3.3 -1.32 6.6 -2 10 C-2.9075 9.835 -3.815 9.67 -4.75 9.5 C-13.21589384 8.33229051 -21.2874055 8.00597785 -29 12 C-33.23367752 16.23367752 -35.07836114 20.3775888 -35.3125 26.3125 C-35.15361023 32.2708663 -33.89539225 37.10460775 -29.625 41.375 C-23.52483058 45.15129536 -19.1036093 45.18942958 -12 45 C-11.67 41.04 -11.34 37.08 -11 33 C-13.97 33 -16.94 33 -20 33 C-20 29.7 -20 26.4 -20 23 C-12.74 23 -5.48 23 2 23 C2 33.23 2 43.46 2 54 C-11.11216314 57.27804079 -25.03758238 59.12009033 -37.4375 52.4375 C-43.46438182 48.41957879 -46.68055431 43.23863942 -49.375 36.625 C-51.10657581 26.58186029 -50.17566575 17.72675638 -44.71484375 8.9296875 C-39.71580477 2.49638385 -32.4627304 -1.27382174 -24.515625 -2.71875 C-15.69613231 -3.70478024 -8.24460693 -3.35373841 0 0 Z " fill="#991E5B" transform="translate(1928,1311)"/>
<path d="M0 0 C6.35056653 5.29959249 6.35056653 5.29959249 6.95703125 10.4296875 C7.15406989 16.36158754 6.21928966 19.58899432 2.71875 24.4140625 C-0.03125 26.8515625 -0.03125 26.8515625 -2.28125 28.4140625 C-1.51296875 29.07535156 -0.7446875 29.73664063 0.046875 30.41796875 C3.25057425 33.62731627 4.28049211 37.05708683 5.46875 41.3515625 C5.67628906 42.04185547 5.88382813 42.73214844 6.09765625 43.44335938 C7.27895958 47.46360136 8.02154374 51.23082493 8.71875 55.4140625 C4.42875 55.4140625 0.13875 55.4140625 -4.28125 55.4140625 C-6.71868248 50.05171105 -8.60024829 44.5914205 -10.4140625 38.98828125 C-11.1977604 36.46581722 -11.1977604 36.46581722 -12.28125 34.4140625 C-15.58125 33.7540625 -18.88125 33.0940625 -22.28125 32.4140625 C-22.28125 40.0040625 -22.28125 47.5940625 -22.28125 55.4140625 C-26.57125 55.4140625 -30.86125 55.4140625 -35.28125 55.4140625 C-35.28125 36.2740625 -35.28125 17.1340625 -35.28125 -2.5859375 C-8.52968424 -5.92988322 -8.52968424 -5.92988322 0 0 Z M-22.28125 6.4140625 C-22.28125 12.0240625 -22.28125 17.6340625 -22.28125 23.4140625 C-14.71063925 23.32356825 -14.71063925 23.32356825 -8.09375 20.2265625 C-5.93465112 16.87623665 -5.53293127 15.32194918 -6.28125 11.4140625 C-8.1483491 9.11130694 -9.63772741 7.73582379 -12.28125 6.4140625 C-13.98827735 6.34410236 -15.69793003 6.32966096 -17.40625 6.3515625 C-19.015 6.3721875 -20.62375 6.3928125 -22.28125 6.4140625 Z " fill="#991E5B" transform="translate(2088.28125,1311.5859375)"/>
<path d="M0 0 C6.35056653 5.29959249 6.35056653 5.29959249 6.95703125 10.4296875 C7.15406989 16.36158754 6.21928966 19.58899432 2.71875 24.4140625 C-0.03125 26.8515625 -0.03125 26.8515625 -2.28125 28.4140625 C-1.51296875 29.07535156 -0.7446875 29.73664063 0.046875 30.41796875 C3.25057425 33.62731627 4.28049211 37.05708683 5.46875 41.3515625 C5.67628906 42.04185547 5.88382813 42.73214844 6.09765625 43.44335938 C7.27895958 47.46360136 8.02154374 51.23082493 8.71875 55.4140625 C4.42875 55.4140625 0.13875 55.4140625 -4.28125 55.4140625 C-6.71868248 50.05171105 -8.60024829 44.5914205 -10.4140625 38.98828125 C-11.1977604 36.46581722 -11.1977604 36.46581722 -12.28125 34.4140625 C-15.58125 33.7540625 -18.88125 33.0940625 -22.28125 32.4140625 C-22.28125 40.0040625 -22.28125 47.5940625 -22.28125 55.4140625 C-26.57125 55.4140625 -30.86125 55.4140625 -35.28125 55.4140625 C-35.28125 36.2740625 -35.28125 17.1340625 -35.28125 -2.5859375 C-8.52968424 -5.92988322 -8.52968424 -5.92988322 0 0 Z M-22.28125 6.4140625 C-22.28125 12.0240625 -22.28125 17.6340625 -22.28125 23.4140625 C-14.71063925 23.32356825 -14.71063925 23.32356825 -8.09375 20.2265625 C-5.93465112 16.87623665 -5.53293127 15.32194918 -6.28125 11.4140625 C-8.1483491 9.11130694 -9.63772741 7.73582379 -12.28125 6.4140625 C-13.98827735 6.34410236 -15.69793003 6.32966096 -17.40625 6.3515625 C-19.015 6.3721875 -20.62375 6.3928125 -22.28125 6.4140625 Z " fill="#991E5B" transform="translate(1779.28125,1311.5859375)"/>
<path d="M0 0 C5.94 0 11.88 0 18 0 C20.8166304 6.82773997 23.25810894 13.65453222 25.41796875 20.71484375 C25.72068192 21.69240128 26.02339508 22.6699588 26.33528137 23.67713928 C27.28988738 26.76274771 28.23883711 29.85005983 29.1875 32.9375 C29.83490065 35.03462435 30.48268374 37.13163068 31.13085938 39.22851562 C32.04021146 42.17047289 32.94899841 45.11259081 33.8547821 48.0556488 C34.12208633 48.92407913 34.38939056 49.79250946 34.66479492 50.68725586 C35.01642952 51.83115028 35.01642952 51.83115028 35.37516785 52.99815369 C35.8974905 54.67157857 36.44563804 56.33691413 37 58 C32.05 58 27.1 58 22 58 C18 46.375 18 46.375 18 43 C12.06 43 6.12 43 0 43 C-0.33 45.31 -0.66 47.62 -1 50 C-1.85183863 52.74971743 -2.92075381 55.3253464 -4 58 C-8.29 58 -12.58 58 -17 58 C-15.65553688 50.64361443 -13.79038035 43.64510796 -11.5234375 36.5234375 C-11.02827133 34.94654648 -11.02827133 34.94654648 -10.52310181 33.33779907 C-9.47858198 30.01531635 -8.42691817 26.69514684 -7.375 23.375 C-6.66098294 21.10822261 -5.94743665 18.84129687 -5.234375 16.57421875 C-3.49502016 11.04774956 -1.7492593 5.52334179 0 0 Z M8 10 C7.16089611 13.26938086 6.32971667 16.54072534 5.5 19.8125 C5.26152344 20.74126953 5.02304688 21.67003906 4.77734375 22.62695312 C4.55175781 23.51962891 4.32617188 24.41230469 4.09375 25.33203125 C3.88427734 26.15421143 3.67480469 26.9763916 3.45898438 27.82348633 C2.89682882 30.11850948 2.89682882 30.11850948 3 33 C6.96 33 10.92 33 15 33 C13.58761051 25.11415867 11.46063198 17.62079223 9 10 C8.67 10 8.34 10 8 10 Z " fill="#991E5B" transform="translate(1611,1309)"/>
<path d="M0 0 C11.88 0 23.76 0 36 0 C36 3.3 36 6.6 36 10 C28.41 10 20.82 10 13 10 C13 14.29 13 18.58 13 23 C20.26 23 27.52 23 35 23 C35 26.3 35 29.6 35 33 C27.74 33 20.48 33 13 33 C13 37.62 13 42.24 13 47 C21.25 47 29.5 47 38 47 C38 50.63 38 54.26 38 58 C25.46 58 12.92 58 0 58 C0 38.86 0 19.72 0 0 Z " fill="#991E5B" transform="translate(2238,1309)"/>
<path d="M0 0 C11.88 0 23.76 0 36 0 C36 3.3 36 6.6 36 10 C28.41 10 20.82 10 13 10 C13 14.29 13 18.58 13 23 C20.26 23 27.52 23 35 23 C35 26.3 35 29.6 35 33 C27.74 33 20.48 33 13 33 C13 37.62 13 42.24 13 47 C21.25 47 29.5 47 38 47 C38 50.63 38 54.26 38 58 C25.46 58 12.92 58 0 58 C0 38.86 0 19.72 0 0 Z " fill="#991E5B" transform="translate(2006,1309)"/>
<path d="M0 0 C11.88 0 23.76 0 36 0 C36 3.3 36 6.6 36 10 C28.41 10 20.82 10 13 10 C13 14.29 13 18.58 13 23 C20.26 23 27.52 23 35 23 C35 26.3 35 29.6 35 33 C27.74 33 20.48 33 13 33 C13 37.62 13 42.24 13 47 C21.25 47 29.5 47 38 47 C38 50.63 38 54.26 38 58 C25.46 58 12.92 58 0 58 C0 38.86 0 19.72 0 0 Z " fill="#991E5B" transform="translate(1697,1309)"/>
<path d="M0 0 C11.88 0 23.76 0 36 0 C36 3.3 36 6.6 36 10 C28.41 10 20.82 10 13 10 C13 14.29 13 18.58 13 23 C20.26 23 27.52 23 35 23 C35 26.3 35 29.6 35 33 C27.74 33 20.48 33 13 33 C13 37.62 13 42.24 13 47 C21.25 47 29.5 47 38 47 C38 50.63 38 54.26 38 58 C25.46 58 12.92 58 0 58 C0 38.86 0 19.72 0 0 Z " fill="#991E5B" transform="translate(1248,1309)"/>
<path d="M0 0 C11.88 0 23.76 0 36 0 C36 3.3 36 6.6 36 10 C28.41 10 20.82 10 13 10 C13 14.29 13 18.58 13 23 C20.26 23 27.52 23 35 23 C35 26.3 35 29.6 35 33 C27.74 33 20.48 33 13 33 C13 37.62 13 42.24 13 47 C21.25 47 29.5 47 38 47 C38 50.63 38 54.26 38 58 C25.46 58 12.92 58 0 58 C0 38.86 0 19.72 0 0 Z " fill="#991E5B" transform="translate(1145,1309)"/>
<path d="M0 0 C4.95 0 9.9 0 15 0 C16.54902112 5.48074187 18.09725954 10.96170401 19.64477539 16.44287109 C20.17125323 18.3071896 20.6979443 20.1714479 21.22485352 22.03564453 C21.98249581 24.71631293 22.73936918 27.39719741 23.49609375 30.078125 C23.84926918 31.32677338 23.84926918 31.32677338 24.20957947 32.60064697 C24.42973221 33.38115417 24.64988495 34.16166138 24.87670898 34.96582031 C25.06990219 35.64976868 25.2630954 36.33371704 25.46214294 37.03839111 C26.00514733 39.01877274 26.50967743 41.00598326 27 43 C27.28721924 41.98164062 27.57443848 40.96328125 27.87036133 39.9140625 C28.94602641 36.10367739 30.02619498 32.29458077 31.10766602 28.48583984 C31.57339687 26.84327954 32.03793721 25.20038116 32.5012207 23.55712891 C33.17079139 21.1829999 33.84476194 18.81015599 34.51953125 16.4375 C34.72278519 15.71320801 34.92603912 14.98891602 35.13545227 14.24267578 C36.52161073 9.38981233 38.17705299 4.70677042 40 0 C44.62 0 49.24 0 54 0 C52.00593013 7.56343417 49.75340256 14.96145107 47.20703125 22.35546875 C46.85613937 23.38311844 46.5052475 24.41076813 46.14372253 25.46955872 C45.03648005 28.70996546 43.92457639 31.94874944 42.8125 35.1875 C42.05502803 37.4015865 41.29786373 39.61577829 40.54101562 41.83007812 C38.69756132 47.22127449 36.8499287 52.611022 35 58 C29.72 58 24.44 58 19 58 C16.16171074 51.08352899 13.63340962 44.14146358 11.328125 37.03125 C11.00084412 36.02912476 10.67356323 35.02699951 10.33636475 33.99450684 C9.65246474 31.89758453 8.97021161 29.80012442 8.28955078 27.70214844 C7.24336106 24.47954993 6.19038506 21.25922321 5.13671875 18.0390625 C4.47095142 15.9949228 3.80557262 13.9506565 3.140625 11.90625 C2.82506653 10.94174927 2.50950806 9.97724854 2.18438721 8.98352051 C1.89698669 8.0949939 1.60958618 7.20646729 1.31347656 6.29101562 C0.93186371 5.11714294 0.93186371 5.11714294 0.5425415 3.91955566 C0 2 0 2 0 0 Z " fill="#991E5B" transform="translate(2100,1309)"/>
<path d="M0 0 C4.95 0 9.9 0 15 0 C16.54902112 5.48074187 18.09725954 10.96170401 19.64477539 16.44287109 C20.17125323 18.3071896 20.6979443 20.1714479 21.22485352 22.03564453 C21.98249581 24.71631293 22.73936918 27.39719741 23.49609375 30.078125 C23.84926918 31.32677338 23.84926918 31.32677338 24.20957947 32.60064697 C24.42973221 33.38115417 24.64988495 34.16166138 24.87670898 34.96582031 C25.06990219 35.64976868 25.2630954 36.33371704 25.46214294 37.03839111 C26.00514733 39.01877274 26.50967743 41.00598326 27 43 C27.28721924 41.98164062 27.57443848 40.96328125 27.87036133 39.9140625 C28.94602641 36.10367739 30.02619498 32.29458077 31.10766602 28.48583984 C31.57339687 26.84327954 32.03793721 25.20038116 32.5012207 23.55712891 C33.17079139 21.1829999 33.84476194 18.81015599 34.51953125 16.4375 C34.72278519 15.71320801 34.92603912 14.98891602 35.13545227 14.24267578 C36.52161073 9.38981233 38.17705299 4.70677042 40 0 C44.62 0 49.24 0 54 0 C52.00593013 7.56343417 49.75340256 14.96145107 47.20703125 22.35546875 C46.85613937 23.38311844 46.5052475 24.41076813 46.14372253 25.46955872 C45.03648005 28.70996546 43.92457639 31.94874944 42.8125 35.1875 C42.05502803 37.4015865 41.29786373 39.61577829 40.54101562 41.83007812 C38.69756132 47.22127449 36.8499287 52.611022 35 58 C29.72 58 24.44 58 19 58 C16.16171074 51.08352899 13.63340962 44.14146358 11.328125 37.03125 C11.00084412 36.02912476 10.67356323 35.02699951 10.33636475 33.99450684 C9.65246474 31.89758453 8.97021161 29.80012442 8.28955078 27.70214844 C7.24336106 24.47954993 6.19038506 21.25922321 5.13671875 18.0390625 C4.47095142 15.9949228 3.80557262 13.9506565 3.140625 11.90625 C2.82506653 10.94174927 2.50950806 9.97724854 2.18438721 8.98352051 C1.89698669 8.0949939 1.60958618 7.20646729 1.31347656 6.29101562 C0.93186371 5.11714294 0.93186371 5.11714294 0.5425415 3.91955566 C0 2 0 2 0 0 Z " fill="#991E5B" transform="translate(1187,1309)"/>
<path d="M0 0 C-0.99 3.3 -1.98 6.6 -3 10 C-4.30324219 9.74863281 -4.30324219 9.74863281 -5.6328125 9.4921875 C-6.78523438 9.28851562 -7.93765625 9.08484375 -9.125 8.875 C-10.26195313 8.66617187 -11.39890625 8.45734375 -12.5703125 8.2421875 C-16.29077934 7.97946661 -18.59087403 8.55339759 -22 10 C-23.29633621 11.06645115 -23.29633621 11.06645115 -23.0625 13.5625 C-23.041875 14.366875 -23.02125 15.17125 -23 16 C-22.3709375 16.31453125 -21.741875 16.6290625 -21.09375 16.953125 C-19.30520348 17.84739826 -17.51887058 18.74610782 -15.734375 19.6484375 C-14.09469697 20.45890693 -12.44158664 21.24406178 -10.765625 21.9765625 C-5.01481437 24.53990832 -0.84604771 28.30790458 2 34 C2.59057744 39.67862925 2.29370905 44.16922672 -1 49 C-6.75451435 54.8915266 -13.18423404 57.10625875 -21.375 57.375 C-27.19050121 57.22693915 -32.49272462 55.78959819 -38 54 C-37.88541307 52.56163249 -37.75790884 51.12429034 -37.625 49.6875 C-37.55539063 48.88699219 -37.48578125 48.08648438 -37.4140625 47.26171875 C-37 45 -37 45 -35 42 C-34.45472656 42.2165625 -33.90945312 42.433125 -33.34765625 42.65625 C-27.33087813 44.87782961 -20.86381249 46.74171858 -14.73828125 43.98046875 C-14.16464844 43.65691406 -13.59101563 43.33335938 -13 43 C-13 40.36 -13 37.72 -13 35 C-13.86496094 34.72800781 -14.72992187 34.45601562 -15.62109375 34.17578125 C-24.17903793 31.19781455 -32.52321888 27.6892782 -37.375 19.75 C-38.60695263 14.32940845 -37.80703618 9.64511222 -35.375 4.6875 C-27.05947168 -4.72217678 -10.66730461 -6.24427587 0 0 Z " fill="#991E5B" transform="translate(2347,1311)"/>
<path d="M0 0 C-0.99 3.3 -1.98 6.6 -3 10 C-4.30324219 9.74863281 -4.30324219 9.74863281 -5.6328125 9.4921875 C-6.78523438 9.28851562 -7.93765625 9.08484375 -9.125 8.875 C-10.26195312 8.66617187 -11.39890625 8.45734375 -12.5703125 8.2421875 C-16.29077934 7.97946661 -18.59087403 8.55339759 -22 10 C-23.29633621 11.06645115 -23.29633621 11.06645115 -23.0625 13.5625 C-23.041875 14.366875 -23.02125 15.17125 -23 16 C-22.3709375 16.31453125 -21.741875 16.6290625 -21.09375 16.953125 C-19.30520348 17.84739826 -17.51887058 18.74610782 -15.734375 19.6484375 C-14.09469697 20.45890693 -12.44158664 21.24406178 -10.765625 21.9765625 C-5.01481437 24.53990832 -0.84604771 28.30790458 2 34 C2.59057744 39.67862925 2.29370905 44.16922672 -1 49 C-6.75451435 54.8915266 -13.18423404 57.10625875 -21.375 57.375 C-27.19050121 57.22693915 -32.49272462 55.78959819 -38 54 C-37.88541307 52.56163249 -37.75790884 51.12429034 -37.625 49.6875 C-37.55539062 48.88699219 -37.48578125 48.08648438 -37.4140625 47.26171875 C-37 45 -37 45 -35 42 C-34.45472656 42.2165625 -33.90945313 42.433125 -33.34765625 42.65625 C-27.33087813 44.87782961 -20.86381249 46.74171858 -14.73828125 43.98046875 C-14.16464844 43.65691406 -13.59101562 43.33335938 -13 43 C-13 40.36 -13 37.72 -13 35 C-13.86496094 34.72800781 -14.72992187 34.45601562 -15.62109375 34.17578125 C-24.17903793 31.19781455 -32.52321888 27.6892782 -37.375 19.75 C-38.60695263 14.32940845 -37.80703618 9.64511222 -35.375 4.6875 C-27.05947168 -4.72217678 -10.66730461 -6.24427587 0 0 Z " fill="#991E5B" transform="translate(1995,1311)"/>
<path d="M0 0 C-0.99 3.3 -1.98 6.6 -3 10 C-4.30324219 9.74863281 -4.30324219 9.74863281 -5.6328125 9.4921875 C-6.78523438 9.28851562 -7.93765625 9.08484375 -9.125 8.875 C-10.26195312 8.66617187 -11.39890625 8.45734375 -12.5703125 8.2421875 C-16.29077934 7.97946661 -18.59087403 8.55339759 -22 10 C-23.29633621 11.06645115 -23.29633621 11.06645115 -23.0625 13.5625 C-23.041875 14.366875 -23.02125 15.17125 -23 16 C-22.3709375 16.31453125 -21.741875 16.6290625 -21.09375 16.953125 C-19.30520348 17.84739826 -17.51887058 18.74610782 -15.734375 19.6484375 C-14.09469697 20.45890693 -12.44158664 21.24406178 -10.765625 21.9765625 C-5.01481437 24.53990832 -0.84604771 28.30790458 2 34 C2.59057744 39.67862925 2.29370905 44.16922672 -1 49 C-6.75451435 54.8915266 -13.18423404 57.10625875 -21.375 57.375 C-27.19050121 57.22693915 -32.49272462 55.78959819 -38 54 C-37.88541307 52.56163249 -37.75790884 51.12429034 -37.625 49.6875 C-37.55539062 48.88699219 -37.48578125 48.08648438 -37.4140625 47.26171875 C-37 45 -37 45 -35 42 C-34.45472656 42.2165625 -33.90945313 42.433125 -33.34765625 42.65625 C-27.33087813 44.87782961 -20.86381249 46.74171858 -14.73828125 43.98046875 C-14.16464844 43.65691406 -13.59101562 43.33335938 -13 43 C-13 40.36 -13 37.72 -13 35 C-13.86496094 34.72800781 -14.72992187 34.45601562 -15.62109375 34.17578125 C-24.17903793 31.19781455 -32.52321888 27.6892782 -37.375 19.75 C-38.60695263 14.32940845 -37.80703618 9.64511222 -35.375 4.6875 C-27.05947168 -4.72217678 -10.66730461 -6.24427587 0 0 Z " fill="#991E5B" transform="translate(1439,1311)"/>
<path d="M0 0 C-0.28109113 1.64767247 -0.57518526 3.29313145 -0.875 4.9375 C-1.03742187 5.85402344 -1.19984375 6.77054688 -1.3671875 7.71484375 C-1.57601562 8.46894531 -1.78484375 9.22304687 -2 10 C-2.66 10.33 -3.32 10.66 -4 11 C-4.99 10.67 -5.98 10.34 -7 10 C-13.9115264 9.52016105 -19.99716079 9.10626646 -26 13 C-26.66 13 -27.32 13 -28 13 C-28.28875 13.721875 -28.5775 14.44375 -28.875 15.1875 C-30 18 -30 18 -31.125 20.25 C-33.07127125 26.3668525 -32.46797076 32.40310192 -29.98046875 38.27734375 C-28.01730065 41.72657535 -25.16273848 43.33557801 -21.8125 45.25 C-15.69070612 46.88247837 -9.14982566 46.29470014 -3 45 C-1.80712589 48.87684087 -1 51.91621923 -1 56 C-12.26376535 58.95443025 -23.75978057 59.50615066 -34.29296875 53.74609375 C-41.27269373 48.94016679 -45.44611684 42.33446421 -47 34 C-47.83572238 24.1951856 -46.24971778 15.81214722 -40 8 C-30.06237679 -2.86331962 -13.47652121 -5.22345783 0 0 Z " fill="#991E5B" transform="translate(2229,1310)"/>
<path d="M0 0 C-0.28109113 1.64767247 -0.57518526 3.29313145 -0.875 4.9375 C-1.03742188 5.85402344 -1.19984375 6.77054688 -1.3671875 7.71484375 C-1.57601563 8.46894531 -1.78484375 9.22304687 -2 10 C-2.66 10.33 -3.32 10.66 -4 11 C-4.99 10.67 -5.98 10.34 -7 10 C-13.9115264 9.52016105 -19.99716079 9.10626646 -26 13 C-26.66 13 -27.32 13 -28 13 C-28.28875 13.721875 -28.5775 14.44375 -28.875 15.1875 C-30 18 -30 18 -31.125 20.25 C-33.07127125 26.3668525 -32.46797076 32.40310192 -29.98046875 38.27734375 C-28.01730065 41.72657535 -25.16273848 43.33557801 -21.8125 45.25 C-15.69070612 46.88247837 -9.14982566 46.29470014 -3 45 C-1.80712589 48.87684087 -1 51.91621923 -1 56 C-12.26376535 58.95443025 -23.75978057 59.50615066 -34.29296875 53.74609375 C-41.27269373 48.94016679 -45.44611684 42.33446421 -47 34 C-47.83572238 24.1951856 -46.24971778 15.81214722 -40 8 C-30.06237679 -2.86331962 -13.47652121 -5.22345783 0 0 Z " fill="#991E5B" transform="translate(1589,1310)"/>
<path d="M0 0 C15.18 0 30.36 0 46 0 C46 3.63 46 7.26 46 11 C40.72 11 35.44 11 30 11 C30 26.51 30 42.02 30 58 C25.38 58 20.76 58 16 58 C16 42.49 16 26.98 16 11 C10.72 11 5.44 11 0 11 C0 7.37 0 3.74 0 0 Z " fill="#991E5B" transform="translate(1644,1309)"/>
<path d="M0 0 C15.18 0 30.36 0 46 0 C46 3.63 46 7.26 46 11 C40.72 11 35.44 11 30 11 C30 26.51 30 42.02 30 58 C25.38 58 20.76 58 16 58 C16 42.49 16 26.98 16 11 C10.72 11 5.44 11 0 11 C0 7.37 0 3.74 0 0 Z " fill="#991E5B" transform="translate(1351,1309)"/>
<path d="M0 0 C6.63911405 4.65728896 10.98002432 10.83851047 13.54296875 18.52734375 C14.33671467 27.88220637 14.12675106 35.63355834 8.54296875 43.52734375 C6.04296875 46.40234375 6.04296875 46.40234375 3.54296875 48.52734375 C2.42921875 49.54828125 2.42921875 49.54828125 1.29296875 50.58984375 C-8.26989681 57.32731721 -18.03694566 58.33979473 -29.45703125 57.52734375 C-39.67573732 55.30864206 -48.66932904 49.29003307 -54.45703125 40.52734375 C-58.13613968 33.33572803 -58.8604817 24.84040618 -56.80078125 17.04296875 C-53.1761632 7.98142364 -46.15776485 1.04806818 -37.61328125 -3.44140625 C-25.67686407 -8.39961031 -10.83128912 -6.49188553 0 0 Z M-49.45703125 11.52734375 C-53.50730512 18.20453944 -54.56774838 24.94140712 -53.0546875 32.55078125 C-51.02232904 39.27217589 -46.18050079 45.01435575 -40.40234375 48.9140625 C-38.45076731 49.93541282 -36.5226038 50.76590051 -34.45703125 51.52734375 C-32.84828125 52.14609375 -32.84828125 52.14609375 -31.20703125 52.77734375 C-21.79241755 54.66026649 -12.98886384 54.16068933 -4.45703125 49.52734375 C2.18317833 44.84454433 7.6568472 39.62969688 9.54296875 31.52734375 C10.70976423 22.96256841 9.10249392 16.2591164 3.91796875 9.3671875 C-2.0011237 2.76986571 -9.16862172 -0.80495762 -17.953125 -1.9140625 C-31.00458711 -2.35721182 -40.93442305 1.43935853 -49.45703125 11.52734375 Z " fill="#991E5B" transform="translate(2439.45703125,1012.47265625)"/>
<path d="M0 0 C2.6814352 2.20569669 2.96212851 2.77277107 3.5625 6.375 C2.96858836 10.20243058 2.78173184 10.62925443 0 12.9375 C-1.485 13.9584375 -1.485 13.9584375 -3 15 C-2.4225 15.598125 -1.845 16.19625 -1.25 16.8125 C1.89243064 21.26427675 3.25922279 25.83983899 5 31 C1.37 31 -2.26 31 -6 31 C-10 21.25 -10 21.25 -10 19 C-12.97 18.67 -15.94 18.34 -19 18 C-19 22.29 -19 26.58 -19 31 C-22.3 31 -25.6 31 -29 31 C-29 20.11 -29 9.22 -29 -2 C-20.17119743 -4.20720064 -8.1794605 -4.56921586 0 0 Z M-19 3 C-19 5.97 -19 8.94 -19 12 C-12.60174737 12.47326369 -12.60174737 12.47326369 -7 10 C-6.5 7.5 -6.5 7.5 -7 5 C-11.2024454 2.19836974 -14.00104935 2.85510288 -19 3 Z " fill="#991E5B" transform="translate(2430,1026)"/>
<path d="M0 0 C4.29 0 8.58 0 13 0 C13 19.14 13 38.28 13 58 C8.71 58 4.42 58 0 58 C0 38.86 0 19.72 0 0 Z " fill="#991E5B" transform="translate(2160,1309)"/>
<path d="M0 0 C4.29 0 8.58 0 13 0 C13 19.14 13 38.28 13 58 C8.71 58 4.42 58 0 58 C0 38.86 0 19.72 0 0 Z " fill="#991E5B" transform="translate(1796,1309)"/>
<path d="M0 0 C3.25109676 -0.79618696 5.78763307 -1.03690325 9 0 C11.97930787 3.69175105 14.01294354 7.70642463 16 12 C13.3359375 12.33984375 13.3359375 12.33984375 10 12 C7.90308942 10.20728913 6.34401443 8.65803571 4.625 6.5625 C4.17511719 6.04623047 3.72523438 5.52996094 3.26171875 4.99804688 C0 1.20592705 0 1.20592705 0 0 Z " fill="#991E5B" transform="translate(2281,1307)"/>
</svg>
